<svg xmlns="http://www.w3.org/2000/svg" viewBox="0 0 48 72" fill="#106B4F">
  <!-- Zeen Full Logo - ZEEN in block pattern -->

  <!-- Row 1: Z top + E top -->
  <!-- Z top (horizontal bar + curve start) -->
  <path d="M2 2C2 0.9 2.9 0 4 0H18C19.1 0 20 0.9 20 2V6C20 7.1 19.1 8 18 8H8C6.9 8 6 8.9 6 10V10C6 11.1 6.9 12 8 12H10C11.1 12 12 12.9 12 14V20C12 21.1 11.1 22 10 22H4C2.9 22 2 21.1 2 20V2Z"/>

  <!-- E top (horizontal bars) -->
  <path d="M26 2C26 0.9 26.9 0 28 0H44C45.1 0 46 0.9 46 2V6C46 7.1 45.1 8 44 8H32C30.9 8 30 8.9 30 10V10C30 11.1 30.9 12 32 12H40C41.1 12 42 12.9 42 14V14C42 15.1 41.1 16 40 16H32C30.9 16 30 16.9 30 18V18C30 19.1 30.9 20 32 20H44C45.1 20 46 20.9 46 22V22H26V2Z"/>

  <!-- Row 2: E middle + E middle -->
  <!-- Left E middle -->
  <path d="M2 26C2 24.9 2.9 24 4 24H18C19.1 24 20 24.9 20 26V30C20 31.1 19.1 32 18 32H8C6.9 32 6 32.9 6 34V34C6 35.1 6.9 36 8 36H14C15.1 36 16 36.9 16 38V38C16 39.1 15.1 40 14 40H8C6.9 40 6 40.9 6 42V42C6 43.1 6.9 44 8 44H18C19.1 44 20 44.9 20 46V46H2V26Z"/>

  <!-- Right E middle -->
  <path d="M26 26C26 24.9 26.9 24 28 24H44C45.1 24 46 24.9 46 26V30C46 31.1 45.1 32 44 32H32C30.9 32 30 32.9 30 34V34C30 35.1 30.9 36 32 36H40C41.1 36 42 36.9 42 38V38C42 39.1 41.1 40 40 40H32C30.9 40 30 40.9 30 42V42C30 43.1 30.9 44 32 44H44C45.1 44 46 44.9 46 46V46H26V26Z"/>

  <!-- Row 3: N bottom -->
  <!-- Left N part -->
  <path d="M2 50C2 48.9 2.9 48 4 48H10C11.1 48 12 48.9 12 50V62L6 56V50C6 48.9 6.9 48 8 48H8C9.1 48 10 48.9 10 50V66C10 68 8 70 6 70H4C2.9 70 2 69.1 2 68V50Z"/>

  <!-- Right N part -->
  <path d="M26 50C26 48.9 26.9 48 28 48H34C35.1 48 36 48.9 36 50V56L30 62V50C30 48.9 30.9 48 32 48H32C33.1 48 34 48.9 34 50V50H38V66C38 67.1 37.1 68 36 68V68C34.9 68 34 68.9 34 70H28C26.9 70 26 69.1 26 68V50Z"/>

  <!-- Connector shapes for N -->
  <path d="M14 48H22V70H14C12.9 70 12 69.1 12 68V50C12 48.9 12.9 48 14 48Z"/>
  <path d="M38 48H46V68C46 69.1 45.1 70 44 70H38C36.9 70 36 69.1 36 68V50C36 48.9 36.9 48 38 48Z"/>
</svg>
